HIERARCHY
ROOT Hips
{
	OFFSET -3.958830 18.904000 13.208200
	CHANNELS 6 Xposition Yposition Zposition Zrotation Yrotation Xrotation 
	JOINT LHipJoint
	{
		OFFSET 0.000000 0.000000 0.000000
		CHANNELS 3 Zrotation Yrotation Xrotation
		JOINT LeftUpLeg
		{
			OFFSET 1.800000 -1.400000 0.085000
			CHANNELS 3 Zrotation Yrotation Xrotation
			JOINT LeftLeg
			{
				OFFSET 2.215000 -6.000000 0.000000
				CHANNELS 3 Zrotation Yrotation Xrotation
				JOINT LeftFoot
				{
					OFFSET 2.500000 -6.900000 0.000000
					CHANNELS 3 Zrotation Yrotation Xrotation
					JOINT LeftToeBase
					{
						OFFSET 0.200000 -0.500000 1.950000
						CHANNELS 3 Zrotation Yrotation Xrotation
						End Site
						{
							OFFSET 0.000000 0.000000 0.000000
						}
					}
				}
			}
		}
	}
	JOINT RHipJoint
	{
		OFFSET 0.000000 0.000000 0.000000
		CHANNELS 3 Zrotation Yrotation Xrotation
		JOINT RightUpLeg
		{
			OFFSET -1.800000 -1.400000 0.085000
			CHANNELS 3 Zrotation Yrotation Xrotation
			JOINT RightLeg
			{
				OFFSET -2.215000 -6.000000 0.000000
				CHANNELS 3 Zrotation Yrotation Xrotation
				JOINT RightFoot
				{
					OFFSET -2.500000 -6.900000 0.000000
					CHANNELS 3 Zrotation Yrotation Xrotation
					JOINT RightToeBase
					{
						OFFSET -0.200000 -0.500000 1.950000
						CHANNELS 3 Zrotation Yrotation Xrotation
						End Site
						{
							OFFSET 0.000000 0.000000 0.000000
						}
					}
				}
			}
		}
	}
	JOINT LowerBack
	{
		OFFSET 0.000000 0.000000 0.000000
		CHANNELS 3 Zrotation Yrotation Xrotation
		JOINT Spine
		{
			OFFSET -0.087000 1.940000 -0.288900
			CHANNELS 3 Zrotation Yrotation Xrotation
			JOINT Spine1
			{
				OFFSET 0.000000 1.950000 0.060000
				CHANNELS 3 Zrotation Yrotation Xrotation
				JOINT Neck
				{
					OFFSET 0.000000 0.000000 0.000000
					CHANNELS 3 Zrotation Yrotation Xrotation
					JOINT Neck1
					{
						OFFSET 0.000000 1.600000 0.340000
						CHANNELS 3 Zrotation Yrotation Xrotation
						JOINT Head
						{
							OFFSET 0.000000 1.667000 -0.240000
							CHANNELS 3 Zrotation Yrotation Xrotation
							End Site
							{
								OFFSET 0.000000 0.000000 0.000000
							}
						}
					}
				}
				JOINT LeftShoulder
				{
					OFFSET 0.000000 0.000000 0.000000
					CHANNELS 3 Zrotation Yrotation Xrotation
					JOINT LeftArm
					{
						OFFSET 2.700000 1.550000 -0.730000
						CHANNELS 3 Zrotation Yrotation Xrotation
						JOINT LeftForeArm
						{
							OFFSET 5.450000 0.000000 0.000000
							CHANNELS 3 Zrotation Yrotation Xrotation
							JOINT LeftHand
							{
								OFFSET 3.450000 0.000000 0.000000
								CHANNELS 3 Zrotation Yrotation Xrotation
								JOINT LeftHandIndex1
								{
									OFFSET 0.750000 0.000000 0.000000
									CHANNELS 3 Zrotation Yrotation Xrotation
									End Site
									{
										OFFSET 0.000000 0.000000 0.000000
									}
								}
							}
						}
					}
				}
				JOINT RightShoulder
				{
					OFFSET 0.000000 0.000000 0.000000
					CHANNELS 3 Zrotation Yrotation Xrotation
					JOINT RightArm
					{
						OFFSET -2.700000 1.550000 -0.730000
						CHANNELS 3 Zrotation Yrotation Xrotation
						JOINT RightForeArm
						{
							OFFSET -5.450000 0.000000 0.000000
							CHANNELS 3 Zrotation Yrotation Xrotation
							JOINT RightHand
							{
								OFFSET -3.450000 0.000000 0.000000
								CHANNELS 3 Zrotation Yrotation Xrotation
								JOINT RightHandIndex1
								{
									OFFSET -0.750000 0.000000 0.000000
									CHANNELS 3 Zrotation Yrotation Xrotation
									End Site
									{
										OFFSET 0.000000 0.000000 0.000000
									}
								}
							}
						}
					}
				}
			}
		}
	}
}
MOTION
Frames: 14
Frame Time: 0.016667
0.422920 16.268440 -1.355290 -0.297468 39.684394 2.210440 -15.051702 11.962634 2.895806 6.022904 -2.619878 -19.881507 -8.656022 4.482435 6.731437 -0.957545 3.887263 3.474558 0.355250 0.029850 0.282890 18.436766 -11.811350 2.445312 -9.743281 0.093612 -2.995383 1.706391 -4.323307 9.140001 -0.081189 -4.822477 2.758916 0.448460 0.835280 0.377570 -5.022463 1.598669 -6.863250 12.969617 5.078949 3.093959 -4.117242 5.183304 14.168630 1.348982 -2.840897 -8.742812 -3.534074 3.953687 21.360392 -5.528420 2.740530 1.303650 -4.884535 -5.404448 2.727878 -32.801901 -25.047214 7.036541 95.556894 -44.864476 -49.837923 -4.330453 2.759781 -0.075260 0.757940 -0.538740 0.220200 3.000159 10.293172 5.527002 31.795849 25.637198 1.010639 -101.734806 37.280423 -52.449086 1.584531 -1.986114 -0.417050 0.272340 0.079730 -0.130130 
0.431530 16.267570 -1.343350 -0.093827 40.450308 2.201439 -15.059221 11.950107 2.879451 5.751302 -2.638389 -19.852870 -8.544700 4.490447 6.991607 -0.969334 3.878339 3.480651 0.371210 0.052920 0.289040 18.432053 -11.825156 2.455734 -9.825105 0.069677 -2.595471 1.800555 -4.368757 9.112869 -0.092349 -4.884296 2.737823 0.469340 0.841420 0.379020 -5.034983 1.641740 -6.855827 12.766618 5.175363 3.133096 -4.188014 5.317783 14.463642 1.433931 -2.871784 -8.693450 -3.560647 4.092612 21.348955 -5.568650 2.783290 1.302000 -4.668163 -5.655673 2.652904 -31.755731 -25.526805 6.913963 96.661915 -42.908781 -49.026299 -4.353488 2.833019 -0.086110 0.767770 -0.543100 0.227630 2.658389 10.663411 5.471073 30.265891 26.186088 0.832173 -103.294643 34.905856 -51.530843 1.591054 -2.077827 -0.417210 0.277170 0.072060 -0.128060 
0.436900 16.265130 -1.330390 0.099156 41.072736 2.265508 -15.066381 11.941807 2.868686 5.509150 -2.670204 -19.927063 -8.422345 4.501640 7.289355 -0.977845 3.872407 3.489247 0.384120 0.070970 0.290760 18.426639 -11.834052 2.466312 -9.893511 0.062362 -2.288419 1.892834 -4.402689 9.061847 -0.099050 -4.937760 2.723478 0.486450 0.855450 0.382470 -5.038556 1.669822 -6.848812 12.548918 5.269218 3.193700 -4.302468 5.467703 14.543361 1.517815 -2.903429 -8.593202 -3.586235 4.236912 21.259388 -5.581890 2.824620 1.447890 -4.137100 -5.527785 2.499013 -30.649292 -25.933781 6.932420 97.488608 -41.495035 -48.311626 -4.377387 2.890840 -0.100750 0.782540 -0.551880 0.238690 1.978936 10.642531 5.334369 28.638870 26.604171 0.815941 -104.247676 33.237471 -50.536588 1.592177 -2.147223 -0.417460 0.282680 0.065300 -0.123350 
0.439390 16.262210 -1.318060 0.151782 41.511325 2.255380 -15.070912 11.941588 2.863126 5.444736 -2.686847 -20.087341 -8.366550 4.547975 7.649024 -0.972563 3.877381 3.490117 0.385750 0.079410 0.282810 18.421912 -11.841164 2.475908 -9.847547 0.050516 -2.074411 1.927596 -4.418516 9.067927 -0.100065 -4.974811 2.712123 0.493920 0.868420 0.387010 -5.046460 1.683790 -6.849874 12.549640 5.278443 3.333333 -4.553089 5.580765 14.493139 1.623888 -3.022747 -8.518506 -3.764247 4.440186 21.168897 -5.585760 2.913250 1.754690 -3.354903 -5.195414 2.394360 -29.451381 -25.951909 6.846381 98.135860 -40.567906 -47.823136 -4.399470 2.941789 -0.120570 0.795960 -0.561240 0.245940 0.980508 10.457312 5.147592 26.735669 26.917635 0.818286 -104.390365 32.295865 -49.449406 1.600307 -2.194463 -0.413340 0.279860 0.062600 -0.114650 
0.439120 16.258710 -1.306340 0.162800 41.810737 2.193889 -15.075178 11.954971 2.857743 5.453960 -2.699040 -20.348613 -8.312288 4.641580 8.231611 -0.963443 3.900206 3.486203 0.378470 0.074340 0.265820 18.415649 -11.844849 2.486117 -9.771118 0.036397 -1.871732 1.947748 -4.435333 9.090420 -0.096951 -5.008500 2.706910 0.492130 0.888130 0.391440 -5.051972 1.670561 -6.854716 12.626210 5.234189 3.557893 -4.802703 5.666067 14.327040 1.676287 -3.208625 -8.444331 -4.066752 4.684882 21.109078 -5.524000 2.978860 2.216290 -2.419771 -4.738827 2.320046 -28.174561 -25.702440 6.700260 98.378206 -40.089095 -47.366360 -4.420117 2.979942 -0.138350 0.810830 -0.575350 0.254630 -0.085527 10.177902 4.913229 24.463130 27.078919 0.788017 -103.867687 32.051191 -48.381741 1.608899 -2.218824 -0.412350 0.276990 0.064430 -0.104590 
0.436930 16.254990 -1.295650 0.118602 42.000608 2.060041 -15.078654 11.974662 2.851697 5.545619 -2.695237 -20.652894 -8.276723 4.768249 8.929453 -0.949923 3.928912 3.477072 0.370030 0.071490 0.246900 18.409357 -11.844710 2.498296 -9.697382 0.010379 -1.656125 2.008302 -4.460913 9.085231 -0.095162 -5.037971 2.706582 0.489010 0.902240 0.390590 -5.059374 1.643393 -6.864236 12.798897 5.184090 3.871973 -5.065379 5.747010 14.006206 1.705932 -3.399002 -8.290388 -4.392653 4.882448 21.146615 -5.468390 3.037770 2.616450 -1.437788 -4.059120 2.148172 -26.799314 -25.514354 6.669284 97.907845 -40.194718 -46.748086 -4.431665 2.996495 -0.153060 0.820890 -0.586040 0.262600 -1.187517 9.649913 4.616056 22.130658 27.119777 0.839056 -102.750105 32.501801 -47.412227 1.618208 -2.220251 -0.410690 0.275050 0.064600 -0.094660 
0.434520 16.250390 -1.285370 0.001562 42.093977 1.954452 -15.079125 11.991720 2.851027 5.680572 -2.707859 -21.120424 -8.234652 4.918260 9.759173 -0.938665 3.968821 3.463720 0.363110 0.070230 0.231160 18.406328 -11.843986 2.509219 -9.578725 -0.007858 -1.535666 2.054117 -4.472635 9.086867 -0.089906 -5.055867 2.711569 0.488900 0.919770 0.389100 -5.073718 1.618726 -6.874820 13.039904 5.072212 4.160555 -5.352563 5.742594 13.505761 1.685455 -3.590410 -8.051561 -4.718266 5.218842 21.137170 -5.378510 3.205260 3.003010 -0.263360 -3.116030 1.929955 -25.476568 -25.240650 6.742141 96.918367 -40.700212 -45.977412 -4.446940 3.001388 -0.169100 0.834320 -0.598030 0.270950 -2.400652 8.841782 4.182312 19.971748 27.440685 1.176692 -100.964296 33.422104 -46.327548 1.622947 -2.207736 -0.411270 0.277460 0.064210 -0.085760 
0.430790 16.244370 -1.275710 -0.140838 42.061708 1.903654 -15.076290 12.003464 2.856312 5.853007 -2.727933 -21.705142 -8.203129 5.083425 10.641876 -0.923240 4.013607 3.448191 0.357660 0.075250 0.211830 18.407426 -11.841838 2.517836 -9.437329 -0.014576 -1.515566 2.056784 -4.457556 9.068079 -0.080361 -5.063425 2.721679 0.492800 0.940360 0.386050 -5.092547 1.598497 -6.886358 13.294027 4.944141 4.396139 -5.670851 5.685725 12.868376 1.612034 -3.757951 -7.744568 -5.007098 5.666436 21.132530 -5.169970 3.432540 3.465940 1.049586 -2.023763 1.662120 -24.089071 -24.990847 6.869918 95.323578 -41.436036 -44.828553 -4.462264 3.005134 -0.191040 0.850310 -0.611980 0.282340 -3.663764 7.848435 3.658974 17.973121 27.966822 1.743629 -98.694396 34.690962 -45.156572 1.625560 -2.189437 -0.410550 0.280080 0.060890 -0.073090 
0.426160 16.239140 -1.267750 -0.316667 42.006770 1.807988 -15.072165 12.016654 2.863792 6.025953 -2.747565 -22.314876 -8.115543 5.246947 11.574807 -0.901487 4.057743 3.428295 0.350530 0.077220 0.196030 18.408968 -11.840688 2.527876 -9.307198 -0.024558 -1.509827 2.132585 -4.464798 9.072370 -0.074829 -5.065772 2.727847 0.490170 0.952950 0.386540 -5.118882 1.578952 -6.904697 13.639832 4.800771 4.707893 -6.033604 5.607123 12.144472 1.537673 -3.935843 -7.425132 -5.317779 6.106941 21.202838 -4.983830 3.692550 3.837290 2.326642 -0.845634 1.388994 -22.636961 -24.555416 6.976595 93.465278 -42.692640 -43.856544 -4.471405 2.997584 -0.209210 0.859640 -0.618180 0.289160 -4.908683 6.770233 3.118964 16.064898 28.436655 2.305561 -96.173658 36.346144 -44.086431 1.629799 -2.155564 -0.404210 0.277580 0.059010 -0.060990 
0.419570 16.234910 -1.259440 -0.402220 41.892452 1.791582 -15.069220 12.033209 2.879782 6.126045 -2.776345 -22.939748 -8.011193 5.405425 12.498078 -0.872468 4.098395 3.411579 0.340860 0.075640 0.181230 18.407992 -11.842776 2.531064 -9.205632 -0.015426 -1.581895 2.148542 -4.465674 9.172382 -0.067551 -5.058361 2.738956 0.481300 0.962900 0.387760 -5.133827 1.553576 -6.922974 13.844753 4.725582 5.020497 -6.363588 5.582488 11.387659 1.495533 -4.064222 -7.141441 -5.552511 6.449780 21.365036 -4.902530 3.991640 4.286380 3.505119 0.290004 1.113671 -21.063674 -24.021684 7.035957 91.456501 -44.303687 -42.986627 -4.473764 2.979627 -0.226160 0.867860 -0.621510 0.296570 -6.125179 5.715272 2.642375 14.280236 28.702547 2.788885 -93.560112 38.281681 -43.136344 1.631610 -2.113195 -0.395760 0.271320 0.054040 -0.048640 
0.411890 16.232880 -1.252700 -0.473702 41.846919 1.677919 -15.067763 12.051551 2.891676 6.195441 -2.796040 -23.480704 -7.862057 5.554213 13.425470 -0.840858 4.130759 3.393569 0.338600 0.080800 0.175870 18.406109 -11.840959 2.539227 -9.144796 -0.030902 -1.514230 2.237700 -4.491039 9.209981 -0.069462 -5.058303 2.747591 0.471920 0.957300 0.385190 -5.152093 1.519321 -6.949873 14.105067 4.665985 5.418546 -6.773925 5.581212 10.717338 1.498907 -4.148023 -6.885570 -5.735353 6.636565 21.726361 -4.843330 4.225550 4.582000 4.517717 1.190512 0.793400 -19.077352 -23.573133 6.954816 88.962105 -46.208866 -41.929355 -4.454508 2.949857 -0.234580 0.864370 -0.615930 0.301880 -7.278629 4.833700 2.259220 12.441832 28.666695 3.036660 -90.800287 40.418957 -42.168474 1.629986 -2.060432 -0.383270 0.261080 0.042550 -0.040030 
0.402890 16.232490 -1.247300 -0.570008 41.841992 1.405367 -15.069893 12.080764 2.898879 6.289787 -2.787968 -23.915280 -7.686823 5.709434 14.373581 -0.803851 4.177264 3.368948 0.322600 0.067300 0.165290 18.400138 -11.837155 2.548380 -9.065584 -0.074535 -1.316733 2.323154 -4.542129 9.295497 -0.076231 -5.064513 2.749900 0.448380 0.948700 0.386000 -5.166234 1.464906 -6.985110 14.413888 4.647896 5.916838 -7.208458 5.649956 10.199266 1.588998 -4.161502 -6.728234 -5.839191 6.629118 22.340043 -4.869540 4.394030 4.900290 5.304840 1.675361 0.487653 -16.589491 -23.070590 6.644397 86.035851 -48.451151 -40.791885 -4.420682 2.902545 -0.234760 0.855580 -0.604950 0.301390 -8.380926 4.288311 2.036304 10.331646 28.128300 2.882580 -87.776978 42.798194 -41.067586 1.623849 -1.987694 -0.371640 0.247990 0.039590 -0.032410 
0.393330 16.232480 -1.243300 -0.629170 41.801489 1.113472 -15.073304 12.112051 2.908392 6.393614 -2.770704 -24.282837 -7.573097 5.872664 15.265417 -0.766888 4.234130 3.334080 0.307550 0.049510 0.156580 18.392972 -11.828211 2.553761 -9.036175 -0.114817 -1.113061 2.406622 -4.603567 9.400100 -0.086505 -5.067332 2.748555 0.419500 0.931410 0.392500 -5.172527 1.393800 -7.023965 14.664910 4.644779 6.400925 -7.560304 5.734671 9.852198 1.677984 -4.143664 -6.663576 -5.927114 6.556454 23.125089 -4.838930 4.465480 5.083350 5.987596 1.775364 0.290682 -13.879765 -22.255005 6.119842 82.915425 -50.927447 -39.687414 -4.368000 2.851762 -0.225510 0.839480 -0.587870 0.295520 -9.360309 4.085850 1.887616 8.027203 27.347313 2.465263 -84.608008 45.267274 -39.824497 1.607919 -1.904274 -0.355570 0.228240 0.041500 -0.028100 
0.383360 16.234100 -1.240720 -0.685779 41.718415 0.775279 -15.076984 12.144654 2.917434 6.513257 -2.737675 -24.544408 -7.515470 6.036299 16.048208 -0.733508 4.294081 3.294518 0.295280 0.028670 0.157720 18.385244 -11.818482 2.557600 -9.012914 -0.155170 -0.905222 2.476180 -4.667738 9.534369 -0.099343 -5.063485 2.744978 0.388060 0.904530 0.397600 -5.175609 1.319184 -7.065290 14.873539 4.617151 6.885918 -7.843031 5.796711 9.603124 1.791893 -4.116006 -6.634882 -6.020601 6.518719 24.055932 -4.804680 4.578620 5.145200 6.471205 1.556521 0.180415 -11.010770 -20.997280 5.438570 79.773469 -53.769693 -38.767231 -4.293130 2.789370 -0.206660 0.815090 -0.566540 0.283730 -10.174552 4.193594 1.732292 5.567837 26.531624 1.893249 -80.873710 48.034321 -38.259430 1.579672 -1.804544 -0.340470 0.206540 0.044310 -0.030520 
